<svg id="Group_167142" data-name="Group 167142" xmlns="http://www.w3.org/2000/svg" xmlns:xlink="http://www.w3.org/1999/xlink" width="107.303" height="122" viewBox="0 0 107.303 122">
  <defs>
    <clipPath id="clip-path">
      <rect id="Rectangle_24921" data-name="Rectangle 24921" width="4.822" height="3.714" fill="#a1663f"/>
    </clipPath>
    <clipPath id="clip-path-2">
      <rect id="Rectangle_24922" data-name="Rectangle 24922" width="4.25" height="4.258" fill="#eea26f"/>
    </clipPath>
  </defs>
  <rect id="Rectangle_24920" data-name="Rectangle 24920" width="26.144" height="1.141" transform="translate(55.431 121.051) rotate(-100.737)" fill="#184655"/>
  <path id="Path_118858" data-name="Path 118858" d="M1321.8,1624.076h-1.348l5.025-26.02,1.121.213Z" transform="translate(-1318.237 -1502.906)" fill="#184655"/>
  <path id="Path_118859" data-name="Path 118859" d="M973.676,1624.076h-1.348l5.025-26.02,1.121.213Z" transform="translate(-930.754 -1502.906)" fill="#184655"/>
  <path id="Path_118860" data-name="Path 118860" d="M1249.391,1624.992l1.095.013-4.817-25.917-1.121.212Z" transform="translate(-1233.547 -1503.822)" fill="#184655"/>
  <path id="Path_118861" data-name="Path 118861" d="M886.471,1098.169c5.985.641,13.73,1.317,21.506,14.512,8.5,14.421,4.025,35.963-2.683,41.949s-28.614,13.377-47.029,2.312c0,0-11.119-6.706-5.413-17.835,8.782-17.126,7.541-20.7,11.467-27.41s9.448-14.889,22.152-13.529" transform="translate(-851.224 -1059.409)" fill="#86b1f2"/>
  <path id="Path_118862" data-name="Path 118862" d="M904.364,1121.865c-5.307-9.006-10.6-12.18-15.329-13.491a39.6,39.6,0,0,1,5.54,7.478c8.5,14.421,4.025,35.963-2.683,41.949-5.948,5.309-23.849,11.72-40.669,5.387a17.083,17.083,0,0,0,3.429,2.938c18.415,11.066,40.322,3.674,47.029-2.312s11.181-27.528,2.683-41.949" transform="translate(-847.611 -1068.593)" fill="#699dee"/>
  <path id="Path_118863" data-name="Path 118863" d="M1226.256,1293.2l-1.538,4.615,4.688-1.844Z" transform="translate(-1210.222 -1232.52)" fill="#f79c8d"/>
  <path id="Path_118864" data-name="Path 118864" d="M1189.73,1171.744c-.312.013-1.169.3-2.421,2.657-1.6,3.012-3.937,12.112-3.937,12.112l6.977,2.589.9-1.9,1.476-14.622s-2.905-.841-2.992-.837" transform="translate(-1168.863 -1124.797)" fill="#ed7d2b"/>
  <path id="Path_118865" data-name="Path 118865" d="M1028.488,1160.144a42.757,42.757,0,0,0-9.223,1.312s-1.683,14.418,1.516,25.374c.716,2.453-.592,10.166-.592,10.166l20.674-.272s-2.449-18.649-1.527-21.661.945-13.51.945-13.51-.142-.022-4.645-.8a46.975,46.975,0,0,0-7.148-.611" transform="translate(-998.399 -1114.509)" fill="#ff9a14"/>
  <path id="Path_118866" data-name="Path 118866" d="M1055.183,1729.526s-.458,5.261-1.3,6.718.044,3.934.088,4.274,1.77.825,4.515.534,2.7-.923,2.479-1.943-1.682-2.331-1.77-3.3a25.286,25.286,0,0,1,.841-4.468Z" transform="translate(-1022.52 -1619.51)" fill="#bc7f57"/>
  <path id="Path_118867" data-name="Path 118867" d="M1034.444,1445.132s-14.271-.79-17.459,1.134.576,5.874.576,5.874,11.619,5.034,31.07,6.153c4.606.265,5-11.969,4.142-12.982s-18.329-.179-18.329-.179" transform="translate(-1010.321 -1366.987)" fill="#13375b"/>
  <path id="Path_118868" data-name="Path 118868" d="M1057.64,1796.638c2.826-.3,2.476-1.684,2.248-2.734a9.3,9.3,0,0,0-1.436-2.166,4.72,4.72,0,0,1-1.891.916c-1.274.375-3.021-.367-4.134-.833a13.553,13.553,0,0,0-.378,3.633c.045.35,2.765,1.484,5.59,1.183" transform="translate(-1021.328 -1674.688)" fill="#86b1f2"/>
  <path id="Path_118869" data-name="Path 118869" d="M996.245,1456.415c-.57,4.3-3.394,25.706-3.394,25.706l6.551.809s8.055-27.94,7.642-32.214-3.428-4.633-3.428-4.633-5.862-1.052-7.371,10.331" transform="translate(-961.658 -1368.094)" fill="#355389"/>
  <path id="Path_118870" data-name="Path 118870" d="M1017.484,1186.609c-1.933-.723-2.879,16.635-3.139,23.78a84.546,84.546,0,0,1-10.875-.109c-.7-.052-2.31-.64-3-.731a6.991,6.991,0,0,0-1.708-.081,32.275,32.275,0,0,0-4,1.8c-.379.4-1.4,1.393-1.229,1.824s1.968-1.2,1.968-1.2l.877-.491c-1.092,1.063-3.176,2.464-2.876,2.974s2.172-.924,3.511-1.893c-1.149,1.034-2.576,2.885-2.247,3.173.3.259,1.919-1.883,3.654-2.5.643-.229,1.284.4,1.789.481a3.651,3.651,0,0,0,1.31.073l1.879-.531c.64.058.656.435,1.3.572.75.159,1.981.327,2.937.559,5.5,1.34,7.337,1.962,9.022,1.961,5.1,0,5.4-27.948.83-29.656" transform="translate(-975.376 -1137.963)" fill="#bc7f57"/>
  <path id="Path_118871" data-name="Path 118871" d="M996.139,1190.183c.362-7.318.309-16.338-3.807-17.877-1.624-.607-4.487,3.044-3.972,18.026a31.034,31.034,0,0,0,7.78-.149" transform="translate(-950.365 -1125.24)" fill="#ed7d2b"/>
  <path id="Path_118872" data-name="Path 118872" d="M1237.763,1762.536a3.546,3.546,0,0,1-.452,3.034c-1.024,1.208-5.277,2.393-5.835,3.047a1.829,1.829,0,0,0-.516,1.211l11.936-.327-.13-3.593-.55-2.582Z" transform="translate(-1224.421 -1648.788)" fill="#bc7f57"/>
  <path id="Path_118873" data-name="Path 118873" d="M1232.5,1792.548s3.067,1.237,4.549.5,1.437-.935,1.865-.662.582,3.943.582,3.943l-13.422.09c-.934-.021-1.406-.707-.647-1.294a10.916,10.916,0,0,1,1.463-.867,42.073,42.073,0,0,1,5.61-1.716" transform="translate(-1220.353 -1675.164)" fill="#86b1f2"/>
  <path id="Path_118874" data-name="Path 118874" d="M1243.5,1450.8c-.922-1.935-3.021-4.454-6.712-2.937-3.521,1.447-4.466,5-3.355,8.645s8.425,25.05,8.68,27.994l5.839.038s-1.061-16.951-1.322-21.049a39.568,39.568,0,0,0-3.13-12.692" transform="translate(-1229.709 -1369.281)" fill="#355389"/>
  <path id="Path_118875" data-name="Path 118875" d="M1021.282,1303.094h19.52a1.273,1.273,0,0,1,1.177.79l6.01,14.659h10.761a.544.544,0,1,1,0,1.089h-30.628a2.138,2.138,0,0,1-1.951-1.262l-6.052-13.481a1.273,1.273,0,0,1,1.161-1.794" transform="translate(-1016.966 -1241.296)" fill="#f2e9da"/>
  <path id="Path_118876" data-name="Path 118876" d="M1244.575,1367.452a1.074,1.074,0,1,0,.805-1.4,1.149,1.149,0,0,0-.805,1.4" transform="translate(-1229.75 -1297.118)" fill="#fff"/>
  <path id="Path_118877" data-name="Path 118877" d="M1104.452,1102.558l.955,6.295s-3.488,7.5-5.57,6.845c-1.747-.545-.672-7.177-.672-7.177s.952-3.562.667-5.344,4.62-.619,4.62-.619" transform="translate(-1071.991 -1063.104)" fill="#bc7f57"/>
  <g id="Group_165181" data-name="Group 165181" transform="translate(27.718 39.081)">
    <g id="Group_165180" data-name="Group 165180" transform="translate(0)" clip-path="url(#clip-path)">
      <path id="Path_118878" data-name="Path 118878" d="M1106.706,1103.177c-.286-1.782,4.62-.619,4.62-.619l.079.522a2.9,2.9,0,0,1-.532.877,6.457,6.457,0,0,1-4.29,1.941,9.714,9.714,0,0,0,.122-2.722" transform="translate(-1106.583 -1102.185)" fill="#a1663f"/>
    </g>
  </g>
  <path id="Path_118879" data-name="Path 118879" d="M1105.185,1011.3c.139-.05,1.112,7.17-.735,9.156s-5.443,2.637-6.733,1.072c-1.427-1.731-1.355-9.49,1.515-11.534s5.953,1.305,5.953,1.305" transform="translate(-1071.918 -980.751)" fill="#bc7f57"/>
  <path id="Path_118880" data-name="Path 118880" d="M1067.906,980.671a7.974,7.974,0,0,1,4.183,2.386c1.007.119,2.376.676,3.79,3.016a5.854,5.854,0,0,1-1.569,7.632,4.561,4.561,0,0,0-2,3.372l-.32-.935a5.226,5.226,0,0,1-.253-2.2,4.3,4.3,0,0,1,.327-1.324c.487-1.045-1.046-1.739-1.475-2.609-.331-.669-.347-2.2-.868-3.307l-.622-.845a3.958,3.958,0,0,0-2.841-.8c-1.405.316-1.2-4.963,1.644-4.383" transform="translate(-1039.499 -955.29)" fill="#2b478b"/>
  <path id="Path_118881" data-name="Path 118881" d="M1102.248,1062.574c-.015.881.386,1.6.894,1.611s.933-.7.948-1.579-.386-1.6-.895-1.611-.933.7-.947,1.579" transform="translate(-1071.059 -1026.57)" fill="#c28359"/>
  <path id="Path_118882" data-name="Path 118882" d="M1143.365,1095.428l-2.783-.144a1.218,1.218,0,0,0,1.231,1.159c1.49.121,1.551-1.015,1.551-1.015" transform="translate(-1114.668 -1056.983)" fill="#fff"/>
  <path id="Path_118883" data-name="Path 118883" d="M466.5,1725.261s.558,3.894,1.519,5.151a9.927,9.927,0,0,1,1.3,1.717,5.079,5.079,0,0,1-.175,3.926c-.228.5.016.5-.5.659a3.181,3.181,0,0,1-3.824-1.806,9.214,9.214,0,0,1-.75-3.318,12.069,12.069,0,0,0-1.257-5.333Z" transform="translate(-364.304 -1615.728)" fill="#f7a491"/>
  <path id="Path_118884" data-name="Path 118884" d="M644.04,1741.013a36.95,36.95,0,0,0-.065,5.818c.15.764.984,2.337.6,3.056a1.925,1.925,0,0,1-.82.9l-9.918.161c-.54.009-.183-.341.252-.663a19.98,19.98,0,0,1,3.566-1.984c.148-.072.689-.418.884-.538a6.873,6.873,0,0,0,1.419-1.26c.712-.8.774-4.664.774-4.664Z" transform="translate(-558.652 -1629.698)" fill="#f7a491"/>
  <path id="Path_118885" data-name="Path 118885" d="M624.672,1216.186s-1.249,7.13-.429,11.8,4.756,48,4.756,48l4.374.248s.917-18.1.753-20.614a39.2,39.2,0,0,0-1.462-6.729l.435-14.612-5.52-19.2Z" transform="translate(-547.036 -1163.239)" fill="#13375b"/>
  <path id="Path_118886" data-name="Path 118886" d="M498.073,1198.864s3.444,5.213,4.264,9.528-.6,17.574.976,23.227c.854,3.061,4.09,7.787,4.582,11.742s2.422,14.315,2.422,14.315l-4.372.871-10.161-25.872-7.97-23.385-2.042-12.044Z" transform="translate(-407.579 -1147.416)" fill="#355389"/>
  <path id="Path_118887" data-name="Path 118887" d="M459.824,1787.9a4.876,4.876,0,0,0,4.793-2.014,5.313,5.313,0,0,1,.456,3.939c-.392.86-1.539.835-2.442.869a2.356,2.356,0,0,1-2.167-1.334,8.011,8.011,0,0,1-.64-1.461" transform="translate(-359.616 -1669.499)" fill="#699dee"/>
  <path id="Path_118888" data-name="Path 118888" d="M639.061,1798.944a8.93,8.93,0,0,0,5.646-.223,4.606,4.606,0,0,1,.454,2.374c-.241.706-.584.866-.886.874-2.4.063-8.776.149-10.6.173a.3.3,0,0,1-.232-.493c.453-.544,5.425-2.585,5.621-2.7" transform="translate(-559.169 -1680.881)" fill="#699dee"/>
  <path id="Path_118889" data-name="Path 118889" d="M445.423,830.426c-.088-2.288-.163-4.587,1.549-6.775a6.305,6.305,0,0,1,5.484-2.447c5.98.36,3.743,5.6,11.713,8.258,2.476.826,4.775,1.6,6.67,3.252,3.422,2.974,4.209,6.9.591,12.406-8.858,13.489-21.464-1.891-23.27-4.885-1.792-2.971-2.68-8.337-2.736-9.809" transform="translate(-366.496 -813.882)" fill="#2b478b"/>
  <path id="Path_118890" data-name="Path 118890" d="M716.453,781.549l-12.034-9.177-7.753-8.952c-.241-.279.829-5.071.224-5s-.422,2.475-1.11,2.431-4.336-4.66-4.578-4.276c-.454.718,2.122,2.915,1.849,3.212s-2.47-2.55-3.1-2.214,2.336,2.492,2.243,2.812-3.069-1.644-3.22-.938c-.082.383,2.69,1.68,2.371,2.014s-2.6-.324-2.656.126,2,.289,2.926,1.109,2.038.916,3.123,2.666,4.177,8.39,7.44,11.074,10.458,8.634,10.458,8.634Z" transform="translate(-636.66 -756.551)" fill="#ffb27d"/>
  <path id="Path_118891" data-name="Path 118891" d="M669.25,933.469c-2.656-1.335-10.746-6.511-10.746-6.511-1.658,1.395-2.751,4.749-2.751,4.749,5.654,4.605,10.543,8.33,10.543,8.33a38.456,38.456,0,0,0,2.954-6.568" transform="translate(-585.734 -907.69)" fill="#86b1f2"/>
  <path id="Path_118892" data-name="Path 118892" d="M574.018,972.465a8.634,8.634,0,0,1,4.8,2.3c1.8,1.954-2.9,17.664-3.231,20.152s3.124,9.372,3.124,9.372-11.729,2.332-14.778.318c0,0-.268-19.225.059-21s3.271-9.565,3.925-10.275c1.552-.087,6.1-.859,6.1-.859" transform="translate(-485.316 -948.051)" fill="#699dee"/>
  <path id="Path_118893" data-name="Path 118893" d="M612.592,918.111s.024.134.066.361a34.339,34.339,0,0,0,1.509,5.7c.637,1.2-2.179,5.031-4.89,4.563-.807-.139.682-3.519.61-3.877-.137-.685-.323-1.62-.513-2.579l-.318-1.6c-.29-1.465-.526-2.662-.526-2.662Z" transform="translate(-525.402 -899.754)" fill="#ffb27d"/>
  <g id="Group_165184" data-name="Group 165184" transform="translate(83.129 18.256)">
    <g id="Group_165183" data-name="Group 165183" transform="translate(0)" clip-path="url(#clip-path-2)">
      <path id="Path_118894" data-name="Path 118894" d="M625.719,918.472c-.042-.227-.066-.36-.066-.36l-4.061-.1.526,2.662c.1.513.209,1.058.316,1.6a3.808,3.808,0,0,0,1.939-.97,5.112,5.112,0,0,0,1.469-2.18c-.05-.256-.092-.477-.123-.646" transform="translate(-621.592 -918.01)" fill="#eea26f"/>
    </g>
  </g>
  <path id="Path_118895" data-name="Path 118895" d="M613.173,835.1a4.793,4.793,0,0,1,2.5,2.257c.906,1.737,1.33,6.68-2.066,8.714s-5.771-1.389-5.647-4.542.963-7.31,5.217-6.429" transform="translate(-527.389 -826.116)" fill="#ffb27d"/>
  <path id="Path_118896" data-name="Path 118896" d="M674.168,873.1c.052.775.447,1.363.884,1.314s.749-.717.7-1.492-.447-1.363-.884-1.314-.749.717-.7,1.492" transform="translate(-594.32 -858.598)" fill="#ffb27d"/>
  <path id="Path_118897" data-name="Path 118897" d="M595.1,833.281s3.038,5.088,4.8,5.62,1.57,2.956,1.57,2.956.345-5.6-1.247-6.984-5.125-1.591-5.125-1.591" transform="translate(-511.131 -824.605)" fill="#2b478b"/>
  <path id="Path_118898" data-name="Path 118898" d="M599.333,882.992c-.29.77-.127,1.553.364,1.749s1.124-.268,1.414-1.038.127-1.553-.364-1.749-1.124.268-1.414,1.038" transform="translate(-511.341 -867.734)" fill="#ffb27d"/>
  <path id="Path_118899" data-name="Path 118899" d="M599.786,1085.16,587.209,1087a.692.692,0,0,0-.584.785l2.455,16.78a.692.692,0,0,0,.785.584l12.578-1.84a.692.692,0,0,0,.585-.785l-2.455-16.78a.692.692,0,0,0-.785-.584" transform="translate(-511.699 -1047.997)" fill="#ed7d2b"/>
  <path id="Path_118900" data-name="Path 118900" d="M648.745,1085.158a.14.14,0,0,1,.118-.159l5.246-.768a.14.14,0,0,1,.159.119l.08.545-5.524.808Z" transform="translate(-570.038 -1047.179)" fill="#13375b"/>
  <path id="Path_118901" data-name="Path 118901" d="M667.161,1081.7a.836.836,0,1,1-.706.949.837.837,0,0,1,.706-.949m.2,1.358a.536.536,0,1,0-.608-.453.536.536,0,0,0,.608.453" transform="translate(-585.809 -1044.929)" fill="#13375b"/>
  <path id="Path_118902" data-name="Path 118902" d="M648.745,1090.235a.14.14,0,0,0-.066.14l.08.545,5.524-.808a.691.691,0,0,1-.584.784l-4.156.608a.692.692,0,0,1-.784-.584l-.08-.545a.14.14,0,0,1,.066-.14" transform="translate(-569.973 -1052.396)" fill="#355389"/>
  <path id="Path_118903" data-name="Path 118903" d="M643.395,909.3l2.788.487a1.238,1.238,0,0,1-1.482.869c-1.5-.218-1.307-1.356-1.307-1.356" transform="translate(-561.268 -892.029)" fill="#fff"/>
  <path id="Path_118904" data-name="Path 118904" d="M558.343,1123.167l-4.557.466s.074,3.868,0,4.313c0,0-7.793,2.16-11.05,2.746,0,0-1.483-.84-2.083-1.108a14.505,14.505,0,0,0-2.569-.605c-.357-.047-.235.344.071.48a2.966,2.966,0,0,1,1.324.967,2.477,2.477,0,0,1-.984-.081c-.34-.152-.809-.473-.817-.639s-.085-.568-.2-.546c-.028.005-.066.137-.1.275s-.075.265-.107.4c-.057.237-.123.584-.149.74a10.728,10.728,0,0,0,.19,1.683c.056.635.237.918.572,1.08a8.293,8.293,0,0,0,1.959.4,13.183,13.183,0,0,0,3.6-.356c.622-.07,10.545-1.054,10.545-1.054s3.945-.568,4.207-1.247.157-7.906.157-7.906" transform="translate(-461.432 -1081.713)" fill="#ffb27d"/>
  <path id="Path_118905" data-name="Path 118905" d="M538.622,987.223s1.438.682,2.7,3.628c1.2,2.8,1.555,16.77,1.555,16.77l-4.767-.795-2.422-6.514a11.946,11.946,0,0,1,1.235-11.881c.671-.918,1.289-1.473,1.7-1.209" transform="translate(-445.67 -961.082)" fill="#86b1f2"/>
</svg>
